<svg id="Capa_1" enable-background="new 0 0 511.73 511.73" height="512" viewBox="0 0 511.73 511.73" width="512" xmlns="http://www.w3.org/2000/svg"><g ><g ><g ><g ><g ><g ><path d="m309.291 504.23h-106.553c-4.418 0-8-3.582-8-8v-41.447c0-4.418 3.582-8 8-8h106.553c4.418 0 8 3.582 8 8v41.447c0 4.419-3.581 8-8 8z" fill="#8d9ca8"></path></g></g></g></g><g ><g ><g ><g ><path d="m224.736 504.229h-22c-4.42 0-8-3.58-8-8v-41.45c0-4.41 3.58-8 8-8h22c-4.42 0-8 3.59-8 8v41.45c0 4.42 3.58 8 8 8z" fill="#7a8c98"></path></g></g></g></g><g ><g ><g ><g ><path d="m342.93 443.169h-163.915c-4.142 0-7.5-3.358-7.5-7.5s3.358-7.5 7.5-7.5h163.915c4.143 0 7.5 3.358 7.5 7.5s-3.358 7.5-7.5 7.5z"></path></g></g></g></g><g ><g ><g ><g ><path d="m181.316 204.339v247.25c0 4.42-3.58 8-8 8h-80.44c-4.42 0-8-3.58-8-8v-247.25c0-4.41 1.46-8.7 4.15-12.19l28.21-36.7c8.01-10.41 23.71-10.41 31.71 0l28.22 36.7c2.69 3.49 4.15 7.78 4.15 12.19z" fill="#d8ecfe"></path></g></g></g></g><g ><g ><g ><g ><path d="m426.856 202.639v248.95c0 4.42-3.58 8-8 8h-80.44c-4.42 0-8-3.58-8-8v-248.95c0-3.31 1.1-6.52 3.11-9.15l33.22-43.19c6-7.81 17.78-7.81 23.78 0l33.22 43.19c2.02 2.63 3.11 5.84 3.11 9.15z" fill="#d8ecfe"></path></g></g></g></g><g ><g ><g ><g ><path d="m144.096 150.929c-1.8 1.18-3.45 2.69-4.86 4.52l-28.21 36.7c-2.69 3.49-4.15 7.78-4.15 12.19v247.25c0 4.42 3.58 8 8 8h-22c-4.42 0-8-3.58-8-8v-247.25c0-4.41 1.46-8.7 4.15-12.19l28.21-36.7c6.6-8.58 18.43-10.09 26.86-4.52z" fill="#c4e2ff"></path></g></g></g></g><g ><g ><g ><g ><path d="m352.416 202.639v248.95c0 4.42 3.58 8 8 8h-22c-4.42 0-8-3.58-8-8v-248.95c0-3.31 1.1-6.52 3.11-9.15l33.22-43.19c5.72-7.44 16.69-7.79 22.89-1.05-.31.33-.61.68-.89 1.05l-33.22 43.19c-2.01 2.63-3.11 5.84-3.11 9.15z" fill="#c4e2ff"></path></g></g></g></g><g ><g ><g ><g ><path d="m464.335 424.554h-416.938c-6.627 0-12-5.373-12-12v-101.504c0-5.41 3.62-10.152 8.84-11.576l209.41-57.164c2.078-.567 4.269-.565 6.346.007l207.527 57.143c5.207 1.434 8.814 6.169 8.814 11.569v101.525c.001 6.627-5.372 12-11.999 12z" fill="#9facba"></path></g></g></g></g><g ><g ><g ><g ><path d="m69.396 424.549h-22c-6.63 0-12-5.37-12-12v-101.5c0-5.41 3.62-10.15 8.84-11.58l209.41-57.16c2.08-.57 4.27-.56 6.35.01l7.77 2.14-201.53 55.01c-5.22 1.43-8.84 6.17-8.84 11.58v101.5c0 6.63 5.37 12 12 12z" fill="#8d9ca8"></path></g></g></g></g><g ><g ><g ><g ><path d="m426.856 202.639v2.18h-96.44v-2.18c0-3.31 1.1-6.52 3.11-9.15l33.22-43.19c6-7.81 17.78-7.81 23.78 0l33.22 43.19c2.02 2.63 3.11 5.84 3.11 9.15z" fill="#fd8087"></path></g></g></g></g><g ><g ><g ><g ><path d="m181.316 204.339v.48h-96.44v-.48c0-4.41 1.46-8.7 4.15-12.19l28.21-36.7c8.01-10.41 23.71-10.41 31.71 0l28.22 36.7c2.69 3.49 4.15 7.78 4.15 12.19z" fill="#fd8087"></path></g></g></g></g><g ><g ><g ><g ><path d="m330.416 104.489v362.72c0 4.42-3.58 8-8 8h-133.1c-4.42 0-8-3.58-8-8v-362.72c0-3.17 1-6.26 2.86-8.82l18.93-26.06 40.62-55.93c5.99-8.24 18.29-8.24 24.28 0l40.62 55.93 18.93 26.06c1.86 2.56 2.86 5.65 2.86 8.82z" fill="#eaf6ff"></path></g></g></g></g><g ><g ><g ><g ><path d="m203.316 104.489v362.72c0 4.42 3.58 8 8 8h-22c-4.42 0-8-3.58-8-8v-362.72c0-3.17 1-6.26 2.86-8.82l59.55-81.99c5.63-7.75 16.85-8.21 23.14-1.38-.41.43-.78.89-1.14 1.38l-59.55 81.99c-1.86 2.56-2.86 5.65-2.86 8.82z" fill="#d8ecfe"></path></g></g></g></g><g ><g ><g ><g ><circle cx="255.866" cy="208.17" fill="#99e6fc" r="40.922"></circle></g></g></g></g><g ><g ><g ><g ><path d="m266.866 247.589c-3.5.98-7.19 1.5-11 1.5-22.6 0-40.92-18.32-40.92-40.92s18.32-40.92 40.92-40.92c3.81 0 7.5.52 11 1.5-17.26 4.8-29.92 20.63-29.92 39.42s12.66 34.62 29.92 39.42z" fill="#62dbfb"></path></g></g></g></g><g ><g ><g ><g ><path d="m262.93 446.784h-14.128c-4.418 0-8-3.582-8-8v-125.145c0-4.418 3.582-8 8-8h14.128c4.418 0 8 3.582 8 8v125.144c0 4.419-3.582 8.001-8 8.001z" fill="#fd8087"></path></g></g></g></g><g ><g ><g ><g ><path d="m308.626 69.609h-105.52l40.62-55.93c5.99-8.24 18.29-8.24 24.28 0z" fill="#fe646f"></path></g></g></g></g><g ><g ><g ><g ><path d="m389.636 149.249c-.31.33-.61.68-.89 1.05l-33.22 43.19c-2.01 2.63-3.11 5.84-3.11 9.15v2.18h-22v-2.18c0-3.31 1.1-6.52 3.11-9.15l33.22-43.19c5.72-7.44 16.69-7.79 22.89-1.05z" fill="#fe646f"></path></g></g></g></g><g ><g ><g ><g ><path d="m144.096 150.929c-1.8 1.18-3.45 2.69-4.86 4.52l-28.21 36.7c-2.69 3.49-4.15 7.78-4.15 12.19v.48h-22v-.48c0-4.41 1.46-8.7 4.15-12.19l28.21-36.7c6.6-8.58 18.43-10.09 26.86-4.52z" fill="#fe646f"></path></g></g></g></g><g ><g ><g ><g ><path d="m308.626 69.609h-105.52l40.62-55.93c5.99-8.24 18.29-8.24 24.28 0z" fill="#fd8087"></path></g></g></g></g><g ><g ><g ><g ><path d="m266.866 12.299c-.41.43-.78.89-1.14 1.38l-40.62 55.93h-22l40.62-55.93c5.63-7.75 16.85-8.21 23.14-1.38z" fill="#fe646f"></path></g></g></g></g></g><g ><path d="m469.507 292.229-35.151-9.679v-79.91c0-4.933-1.656-9.805-4.665-13.723l-33.218-43.187c-4.29-5.585-10.792-8.788-17.837-8.788-7.046 0-13.548 3.203-17.836 8.785l-22.885 29.754v-70.991c0-4.788-1.483-9.362-4.291-13.228l-59.553-81.992c-4.282-5.891-10.917-9.27-18.205-9.27-7.288 0-13.924 3.378-18.209 9.272l-59.549 81.989c-2.808 3.865-4.292 8.439-4.292 13.228v71l-18.923-24.61c-5.242-6.821-13.184-10.735-21.79-10.738-.003 0-.005 0-.008 0-8.607 0-16.554 3.913-21.805 10.737l-28.204 36.692c-3.683 4.777-5.71 10.732-5.71 16.769v78.309l-35.122 9.587c-8.454 2.316-14.358 10.053-14.358 18.813v101.5c0 10.752 8.748 19.5 19.5 19.5h29.98v19.54c0 8.547 6.953 15.5 15.5 15.5h80.44c.169 0 .333-.02.5-.025v.145c0 7.84 5.856 14.322 13.42 15.344v13.676c0 8.547 6.953 15.5 15.5 15.5h106.56c8.547 0 15.5-6.953 15.5-15.5v-13.722c7.418-1.151 13.12-7.562 13.12-15.298v-.145c.167.005.331.025.5.025h80.44c8.547 0 15.5-6.953 15.5-15.5v-19.54h29.979c10.752 0 19.5-8.748 19.5-19.5v-101.518c0-8.755-5.895-16.487-14.328-18.801zm-.672 18.801v71h-130.92v-50.27c0-4.142-3.357-7.5-7.5-7.5s-7.5 3.358-7.5 7.5v119.83 15.62c0 .276-.225.5-.5.5h-133.1c-.276 0-.5-.224-.5-.5v-330.1h134.1v159.65c0 4.142 3.357 7.5 7.5 7.5s7.5-3.358 7.5-7.5v-25.206l127.616 35.138c1.946.535 3.304 2.318 3.304 4.338zm-130.92-55.034v-43.676h81.44v66.1zm34.777-101.127c1.429-1.86 3.595-2.927 5.943-2.927s4.514 1.066 5.944 2.93l32.649 42.447h-77.187zm-122.9-136.779c1.428-1.964 3.642-3.09 6.074-3.09s4.645 1.126 6.071 3.087l31.974 44.022h-76.091zm-59.548 81.988 16.682-22.968h97.881l16.682 22.967c.921 1.268 1.428 2.835 1.428 4.413v17.62h-134.1v-17.62c-.002-1.578.505-3.145 1.427-4.412zm-67.064 59.945c2.387-3.103 6-4.881 9.914-4.881h.004c3.911.001 7.52 1.779 9.902 4.879l28.226 36.708c.147.191.282.392.417.591h-77.095c.137-.202.274-.405.423-.599zm-30.805 52.297h81.44v44.003l-81.44 22.232zm-46.165 94.385 40.833-11.146c.024-.007.049-.012.073-.02l86.7-23.667v110.158h-130.921v-70.98c0-2.024 1.366-3.811 3.315-4.345zm127.105 145.385h-80.44c-.276 0-.5-.224-.5-.5v-19.54h23.22c4.142 0 7.5-3.358 7.5-7.5s-3.358-7.5-7.5-7.5h-68.2c-2.481 0-4.5-2.019-4.5-4.5v-15.52h130.92v20.02h-23.22c-4.142 0-7.5 3.358-7.5 7.5s3.358 7.5 7.5 7.5h23.22v19.54c0 .276-.224.5-.5.5zm135.98 44.64h-106.56c-.276 0-.5-.224-.5-.5v-13.52h107.56v13.52c0 .271-.229.5-.5.5zm110.06-45.14c0 .276-.225.5-.5.5h-80.44c-.275 0-.5-.224-.5-.5v-19.54h81.44zm44.98-34.54h-126.42v-20.02h130.92v15.52c0 2.481-2.019 4.5-4.5 4.5z"></path><path d="m255.865 159.748c-26.7 0-48.422 21.722-48.422 48.422s21.722 48.422 48.422 48.422 48.423-21.722 48.423-48.422-21.723-48.422-48.423-48.422zm0 81.845c-18.429 0-33.422-14.993-33.422-33.422s14.993-33.422 33.422-33.422c18.43 0 33.423 14.993 33.423 33.422s-14.993 33.422-33.423 33.422z"></path><path d="m262.929 298.795h-14.127c-8.547 0-15.5 6.953-15.5 15.5v123.895c0 8.547 6.953 15.5 15.5 15.5h14.127c8.547 0 15.5-6.953 15.5-15.5v-123.895c0-8.547-6.953-15.5-15.5-15.5zm.5 139.395c0 .276-.225.5-.5.5h-14.127c-.276 0-.5-.224-.5-.5v-123.895c0-.276.224-.5.5-.5h14.127c.275 0 .5.224.5.5z"></path></g></g></svg>